# xmcd
#
# Track frame offsets:
# 150
# 29925
# 56172
# 82528
# 113894
# 146480
# 175827
# 193538
# 232220
# 267081
# 298886
# 316808
# 338568
#
# Disc length: 4749 seconds
#
#
# Revision: 2
# Processed by: cddbd v1.5.2PL0 Copyright (c) Steve Scherf et al.
# Submitted via: FreeRIP 2.945 
#
DISCID=bd128b0d
DTITLE=Various Artist - sweet life club tunes
DYEAR=2006
DGENRE=house 
TTITLE0=1 tom novy -your body
TTITLE1=2 room 5- make luv
TTITLE2=3 the brand new heavies -surrender
TTITLE3=4 rasmus faber -get over here
TTITLE4=5 the disco boys feat manfred mann earth band -for you
TTITLE5=future rock -dynamite 2006
TTITLE6=jupiter ace feat shena -1000 years
TTITLE7=mish mask-speechless
TTITLE8=big world presentes sven g -morning light 2006
TTITLE9=ian carey &mochico -say what you want
TTITLE10=jca -fly away
TTITLE11=salome de bahia -taj mahal
TTITLE12=black shadow-can you stand the funk
EXTD=
EXTT0=
EXTT1=
EXTT2=
EXTT3=
EXTT4=
EXTT5=
EXTT6=
EXTT7=
EXTT8=
EXTT9=
EXTT10=
EXTT11=
EXTT12=
PLAYORDER=
